<svg viewBox="0 0 96 96" xmlns="http://www.w3.org/2000/svg" role="img" aria-label="Egg pet">
  <defs>
    <linearGradient id="eggBody" x1="0" x2="0" y1="0" y2="1">
      <stop offset="0" stop-color="#f5f6ef"/>
      <stop offset="1" stop-color="#d8dfd2"/>
    </linearGradient>
  </defs>
  <ellipse cx="48" cy="82" rx="22" ry="6" fill="#a8b7a3" opacity="0.45"/>
  <path d="M48 12c15 0 27 18 27 40 0 18-10 28-27 28S21 70 21 52C21 30 33 12 48 12Z" fill="url(#eggBody)" stroke="#44514b" stroke-width="4" stroke-linejoin="round"/>
  <path d="M37 35c3-7 7-11 11-11 4 0 8 4 11 11-7 2-15 3-22 0Z" fill="#ffffff" opacity="0.6"/>
  <path d="M48 34l-5 8 6 3-5 7 7 3" fill="none" stroke="#44514b" stroke-width="4" stroke-linecap="round" stroke-linejoin="round"/>
  <path d="M39 48l-6 5" fill="none" stroke="#44514b" stroke-width="4" stroke-linecap="round"/>
  <path d="M54 54l7 6" fill="none" stroke="#44514b" stroke-width="4" stroke-linecap="round"/>
</svg>
