<svg xmlns="http://www.w3.org/2000/svg" width="128" height="128" viewBox="0 0 128 128" shape-rendering="crispEdges">
  <rect width="128" height="128" fill="none"/>
  <g fill="#44514b">
    <rect x="40" y="16" width="8" height="8"/>
    <rect x="80" y="16" width="8" height="8"/>
    <rect x="32" y="24" width="16" height="8"/>
    <rect x="80" y="24" width="16" height="8"/>
    <rect x="24" y="32" width="80" height="8"/>
    <rect x="16" y="40" width="96" height="16"/>
    <rect x="16" y="56" width="96" height="24"/>
    <rect x="24" y="80" width="80" height="24"/>
    <rect x="32" y="104" width="16" height="8"/>
    <rect x="80" y="104" width="16" height="8"/>
    <rect x="40" y="48" width="8" height="8" fill="#b7c7b5"/>
    <rect x="80" y="48" width="8" height="8" fill="#b7c7b5"/>
    <rect x="48" y="64" width="32" height="8" fill="#b7c7b5"/>
    <rect x="40" y="72" width="8" height="8" fill="#b7c7b5"/>
    <rect x="80" y="72" width="8" height="8" fill="#b7c7b5"/>
  </g>
</svg>
