<svg viewBox="0 0 64 64" xmlns="http://www.w3.org/2000/svg" role="img" aria-label="Hit spark">
  <g fill="none" stroke-linecap="round" stroke-linejoin="round">
    <path d="M32 5l5 18 16-10-10 16 18 5-18 5 10 16-16-10-5 18-5-18-16 10 10-16-18-5 18-5-10-16 16 10z" fill="#ffe36f" stroke="#44514b" stroke-width="3"/>
    <path d="M32 18l3 10 9-5-6 9 10 3-10 3 6 9-9-5-3 10-3-10-9 5 6-9-10-3 10-3-6-9 9 5z" fill="#f47f4f" stroke="#44514b" stroke-width="2"/>
    <path d="M32 27l2 5 5-2-3 5 5 2-5 2 3 5-5-2-2 5-2-5-5 2 3-5-5-2 5-2-3-5 5 2z" fill="#f4f7f0" stroke="#44514b" stroke-width="1.5"/>
  </g>
</svg>
